<svg xmlns="http://www.w3.org/2000/svg" xml:space="preserve" width="64" height="64" viewBox="0 0 64 64"><defs><clipPath id="a"><circle cx="32" cy="32" r="32"/></clipPath></defs><g clip-path="url(#a)"><circle cx="32" cy="32" r="32" fill="#fff"/><g style="stroke-width:.99999783;stroke-dasharray:none;fill:#00f;fill-opacity:1"><path d="M94.645 210.618c-.523-1.182-.97-5.742-1.015-10.335-.08-8.22-.08-8.22-2.542-10.292-6.655-5.6-7.553-21.253-1.691-29.485 1.364-1.916 1.611-3.28 1.504-8.31-.189-8.797 7.925-24.782 12.161-23.96 1.29.25 1.381 1.075 1.12 10.187-.235 8.162-.099 9.844.769 9.512.58-.222 3.06-1.036 5.514-1.808 3.655-1.152 4.676-1.86 5.657-3.928 1.359-2.864 6.964-9.484 8.03-9.484 1.41 0 .642 1.804-2.025 4.757-3.372 3.733-4.745 6.543-3.704 7.584 1.061 1.061 13.36 1.35 13.358.313-.004-2.85 8.138-16.501 9.841-16.501 4.62 0 8.063 16.64 4.776 23.085-1.495 2.93-1.498 3.042-.108 3.786 7.115 3.807 6.776 20.275-.597 29.034-4.488 5.332-4.488 5.332-3.045 7.114 1.829 2.258 1.813 3.694-.094 8.533-3.106 7.878-6.449 10.248-4.324 3.065 2.728-9.221 1.883-12.58-2.33-9.267-5.17 4.067-27.386 5.372-35.207 2.068-1.652-.698-3.104-1.168-3.227-1.045-.771.77-1.62 12.607-1.018 14.19 1.437 3.78-.186 4.848-1.803 1.187m27.935-15.598c1.037-.555 1.905-.516 2.942.132 6.218 3.883 23.124-14.263 23.165-24.865.11-27.755-52.265-30.92-59.093-3.57-3.306 13.247-.266 20.31 11.583 26.913 3.24 1.805 18.746 2.812 21.403 1.39m-10.804-12.995c0-1.137.743-1.589 3.27-1.988 1.798-.285 4.982-1.01 7.075-1.61 2.505-.72 4.065-.833 4.565-.333 1.01 1.01 1.126.955-6.983 3.33-8.43 2.468-7.927 2.43-7.927.6m20.966-14.087c-1.7-.82-2.296-2.468-1.15-3.177.58-.357 4.805 2.891 4.805 3.695 0 .651-1.741.405-3.655-.518m-28.507-1.523c-1.09-1.09-1.226-2.924-.217-2.924 1.754 0 3.141 1.056 3.141 2.39 0 1.644-1.534 1.924-2.924.534m-4.457-16.408c2.559-1.07 3.487-11.984 1.23-14.462-.754-.828-3.851 3.13-3.851 4.922 0 .764-.337 1.598-.749 1.852-.83.513-1.923 4.351-2.743 9.631-.537 3.462-.537 3.462 1.477 1.307 1.107-1.185 3.193-2.647 4.636-3.25m43.49-12.868c-1.316-6.29-1.438-6.165-8.49 8.762-.468.992.11 1.529 2.726 2.528 1.827.697 3.97 1.987 4.762 2.865 1.859 2.061 2.5-6.991 1.001-14.155" style="fill:#00f;stroke-width:.99999783;stroke-dasharray:none;fill-opacity:1" transform="translate(-51.935 -88.465)scale(.70819)"/></g></g></svg>