<?xml version="1.0" encoding="UTF-8" standalone="no"?>
<svg
   width="1024"
   height="1024"
   viewBox="0 0 64 64"
   version="1.1"
   id="svg1"
   xml:space="preserve"
   sodipodi:docname="avatar.svg"
   inkscape:export-filename="avatar.ffffff.png"
   inkscape:export-xdpi="96"
   inkscape:export-ydpi="96"
   inkscape:version="1.4 (86a8ad7, 2024-10-11)"
   xmlns:inkscape="http://www.inkscape.org/namespaces/inkscape"
   xmlns:sodipodi="http://sodipodi.sourceforge.net/DTD/sodipodi-0.dtd"
   xmlns="http://www.w3.org/2000/svg"
   xmlns:svg="http://www.w3.org/2000/svg"><sodipodi:namedview
     id="namedview1"
     pagecolor="#ffffff"
     bordercolor="#000000"
     borderopacity="0.25"
     inkscape:showpageshadow="2"
     inkscape:pageopacity="0.0"
     inkscape:pagecheckerboard="0"
     inkscape:deskcolor="#d1d1d1"
     inkscape:export-bgcolor="#ffffffff"
     inkscape:zoom="0.47460937"
     inkscape:cx="510.9465"
     inkscape:cy="512"
     inkscape:window-width="1280"
     inkscape:window-height="730"
     inkscape:window-x="-6"
     inkscape:window-y="-6"
     inkscape:window-maximized="1"
     inkscape:current-layer="svg1" /><defs
     id="defs2" /><g
     id="layer1"
     transform="matrix(0.70818904,0,0,0.70818904,-51.934964,-88.465118)"
     style="stroke-width:0.99999783;stroke-dasharray:none;fill:#0000ff;fill-opacity:1"><path
       style="fill:#0000ff;stroke-width:0.99999783;stroke-dasharray:none;fill-opacity:1"
       d="m 94.644688,210.61803 c -0.522453,-1.18232 -0.97013,-5.7425 -1.014642,-10.33545 -0.07966,-8.21956 -0.07966,-8.21956 -2.542089,-10.29156 -6.655265,-5.60004 -7.553144,-21.25287 -1.691322,-29.48504 1.364609,-1.91642 1.611507,-3.28058 1.503964,-8.30971 -0.188122,-8.79731 7.925122,-24.78204 12.161721,-23.96104 1.28997,0.24997 1.38066,1.07558 1.11901,10.18762 -0.23436,8.16217 -0.0983,9.84424 0.76942,9.5121 0.57977,-0.22192 3.06118,-1.03572 5.51424,-1.80844 3.65508,-1.15137 4.67613,-1.86018 5.65695,-3.92712 1.35901,-2.86391 6.96412,-9.4848 8.02963,-9.4848 1.41085,0 0.64287,1.80472 -2.02425,4.75691 -3.37277,3.73325 -4.74517,6.54341 -3.70406,7.58452 1.06102,1.06102 13.35956,1.34942 13.35817,0.31324 -0.004,-2.8503 8.13736,-16.50176 9.84099,-16.50176 4.62047,0 8.06289,16.64134 4.77541,23.08532 -1.49488,2.93021 -1.49806,3.04176 -0.10796,3.78572 7.11479,3.80773 6.77601,20.27533 -0.59733,29.03485 -4.48767,5.33136 -4.48767,5.33136 -3.0446,7.11348 1.82873,2.25838 1.81285,3.69422 -0.0944,8.53284 -3.10533,7.87829 -6.44819,10.24822 -4.32333,3.06503 2.72771,-9.22112 1.88306,-12.58025 -2.32999,-9.26627 -5.17032,4.06697 -27.38576,5.37152 -35.20708,2.06746 -1.651893,-0.69783 -3.104148,-1.16808 -3.227228,-1.045 -0.77089,0.77089 -1.619911,12.60734 -1.017894,14.19076 1.437044,3.77971 -0.185686,4.84722 -1.80337,1.18634 z m 27.935522,-15.59827 c 1.0367,-0.55483 1.90462,-0.51591 2.94197,0.13193 6.2176,3.88295 23.12346,-14.26289 23.16516,-24.86425 0.10917,-27.75591 -52.265747,-30.92019 -59.093004,-3.57016 -3.306612,13.24632 -0.266634,20.30975 11.582714,26.91261 3.23947,1.80514 18.74573,2.81208 21.40316,1.38987 z m -10.8047,-12.99487 c 0,-1.13677 0.74333,-1.58875 3.27002,-1.98829 1.79851,-0.2844 4.98243,-1.00877 7.07538,-1.60972 2.50497,-0.71926 4.06501,-0.83298 4.5652,-0.33279 1.01025,1.01025 1.12583,0.95513 -6.98335,3.32979 -8.42993,2.46858 -7.92725,2.43047 -7.92725,0.60101 z m 20.96661,-14.08678 c -1.69975,-0.81976 -2.29617,-2.46802 -1.14949,-3.17671 0.5791,-0.3579 4.80422,2.89097 4.80422,3.69416 0,0.65192 -1.74126,0.40538 -3.65473,-0.51745 z m -28.5069,-1.52307 c -1.0899,-1.0899 -1.22589,-2.92378 -0.21681,-2.92378 1.75371,0 3.1406,1.05567 3.1406,2.39057 0,1.64323 -1.53401,1.92299 -2.92379,0.53321 z m -4.457666,-16.40808 c 2.559036,-1.06923 3.487546,-11.98371 1.230306,-14.46193 -0.75424,-0.82809 -3.85127,3.13004 -3.85127,4.92208 0,0.76431 -0.336828,1.59783 -0.748508,1.85226 -0.830124,0.51305 -1.923089,4.35073 -2.742789,9.63064 -0.53753,3.46237 -0.53753,3.46237 1.476307,1.30746 1.107611,-1.18521 3.19379,-2.64794 4.635954,-3.25051 z m 43.489566,-12.86823 c -1.31549,-6.29038 -1.43735,-6.1646 -8.4884,8.76188 -0.46888,0.99259 0.10968,1.52928 2.72547,2.52826 1.82639,0.6975 3.96902,1.9869 4.76141,2.86533 1.8592,2.06107 2.49969,-6.99161 1.00152,-14.15547 z"
       id="path3" /></g></svg>
